<mxfile host="app.diagrams.net" modified="2021-01-13T11:43:14.407Z" agent="5.0 (Windows NT 10.0; Win64; x64) AppleWebKit/537.36 (KHTML, like Gecko) Chrome/87.0.4280.141 Safari/537.36" etag="WDExLXr3N4ZB9og6jnTV" version="14.1.9" type="github">
  <diagram id="Y_JZfTL4k5L8tEWOT3Mt" name="Page-1">
    <mxGraphModel dx="1695" dy="482" grid="1" gridSize="10" guides="1" tooltips="1" connect="1" arrows="1" fold="1" page="1" pageScale="1" pageWidth="827" pageHeight="1169" math="0" shadow="0">
      <root>
        <mxCell id="0" />
        <mxCell id="1" parent="0" />
        <mxCell id="o_f2PwLfbIlFoNLBEKVa-19" value="" style="whiteSpace=wrap;html=1;aspect=fixed;" vertex="1" parent="1">
          <mxGeometry x="30" y="470" width="250" height="250" as="geometry" />
        </mxCell>
        <mxCell id="o_f2PwLfbIlFoNLBEKVa-1" value="User" style="shape=umlActor;verticalLabelPosition=bottom;verticalAlign=top;html=1;outlineConnect=0;" vertex="1" parent="1">
          <mxGeometry x="20" y="210" width="30" height="60" as="geometry" />
        </mxCell>
        <mxCell id="o_f2PwLfbIlFoNLBEKVa-2" value="Adicionar &lt;br&gt;comentário" style="ellipse;whiteSpace=wrap;html=1;" vertex="1" parent="1">
          <mxGeometry x="160" y="150" width="120" height="80" as="geometry" />
        </mxCell>
        <mxCell id="o_f2PwLfbIlFoNLBEKVa-3" value="Avaliar&lt;br&gt;documento" style="ellipse;whiteSpace=wrap;html=1;" vertex="1" parent="1">
          <mxGeometry x="160" y="280" width="120" height="80" as="geometry" />
        </mxCell>
        <mxCell id="o_f2PwLfbIlFoNLBEKVa-4" value="Consultar&lt;br&gt;comentário" style="ellipse;whiteSpace=wrap;html=1;" vertex="1" parent="1">
          <mxGeometry x="150" y="485" width="120" height="80" as="geometry" />
        </mxCell>
        <mxCell id="o_f2PwLfbIlFoNLBEKVa-5" value="Consultar&lt;br&gt;avaliação" style="ellipse;whiteSpace=wrap;html=1;" vertex="1" parent="1">
          <mxGeometry x="140" y="600" width="120" height="80" as="geometry" />
        </mxCell>
        <mxCell id="o_f2PwLfbIlFoNLBEKVa-12" value="" style="endArrow=none;html=1;entryX=0;entryY=0.5;entryDx=0;entryDy=0;" edge="1" parent="1" target="o_f2PwLfbIlFoNLBEKVa-2">
          <mxGeometry width="50" height="50" relative="1" as="geometry">
            <mxPoint x="70" y="250" as="sourcePoint" />
            <mxPoint x="100" y="153" as="targetPoint" />
          </mxGeometry>
        </mxCell>
        <mxCell id="o_f2PwLfbIlFoNLBEKVa-13" value="" style="endArrow=none;html=1;" edge="1" parent="1">
          <mxGeometry width="50" height="50" relative="1" as="geometry">
            <mxPoint x="41" y="610" as="sourcePoint" />
            <mxPoint x="140" y="630" as="targetPoint" />
          </mxGeometry>
        </mxCell>
        <mxCell id="o_f2PwLfbIlFoNLBEKVa-14" value="" style="endArrow=none;html=1;entryX=0;entryY=0.588;entryDx=0;entryDy=0;entryPerimeter=0;" edge="1" parent="1" target="o_f2PwLfbIlFoNLBEKVa-3">
          <mxGeometry width="50" height="50" relative="1" as="geometry">
            <mxPoint x="70" y="280" as="sourcePoint" />
            <mxPoint x="180" y="133.03999999999996" as="targetPoint" />
          </mxGeometry>
        </mxCell>
        <mxCell id="o_f2PwLfbIlFoNLBEKVa-15" value="" style="endArrow=none;html=1;" edge="1" parent="1">
          <mxGeometry width="50" height="50" relative="1" as="geometry">
            <mxPoint x="41" y="580" as="sourcePoint" />
            <mxPoint x="150" y="530" as="targetPoint" />
          </mxGeometry>
        </mxCell>
        <mxCell id="o_f2PwLfbIlFoNLBEKVa-16" value="User" style="shape=umlActor;verticalLabelPosition=bottom;verticalAlign=top;html=1;outlineConnect=0;" vertex="1" parent="1">
          <mxGeometry x="-10" y="560" width="30" height="60" as="geometry" />
        </mxCell>
        <mxCell id="o_f2PwLfbIlFoNLBEKVa-20" value="" style="endArrow=none;html=1;" edge="1" parent="1">
          <mxGeometry width="50" height="50" relative="1" as="geometry">
            <mxPoint x="70" y="120" as="sourcePoint" />
            <mxPoint x="290" y="120" as="targetPoint" />
          </mxGeometry>
        </mxCell>
        <mxCell id="o_f2PwLfbIlFoNLBEKVa-21" value="&amp;nbsp; &amp;nbsp; &amp;nbsp; &amp;nbsp; &amp;nbsp; &amp;nbsp; &amp;nbsp; &amp;nbsp; &amp;nbsp;Review" style="text;html=1;align=center;verticalAlign=middle;resizable=0;points=[];autosize=1;" vertex="1" parent="1">
          <mxGeometry x="95" y="100" width="110" height="20" as="geometry" />
        </mxCell>
        <mxCell id="o_f2PwLfbIlFoNLBEKVa-22" value="Introduzir&lt;br&gt;link" style="ellipse;whiteSpace=wrap;html=1;" vertex="1" parent="1">
          <mxGeometry x="460" y="120" width="120" height="80" as="geometry" />
        </mxCell>
        <mxCell id="o_f2PwLfbIlFoNLBEKVa-23" value="Listagem de&lt;br&gt;documentos" style="ellipse;whiteSpace=wrap;html=1;" vertex="1" parent="1">
          <mxGeometry x="460" y="240" width="120" height="80" as="geometry" />
        </mxCell>
        <mxCell id="o_f2PwLfbIlFoNLBEKVa-25" value="" style="endArrow=none;dashed=1;html=1;dashPattern=1 3;strokeWidth=2;" edge="1" parent="1">
          <mxGeometry width="50" height="50" relative="1" as="geometry">
            <mxPoint x="290" y="180" as="sourcePoint" />
            <mxPoint x="450" y="150" as="targetPoint" />
          </mxGeometry>
        </mxCell>
        <mxCell id="o_f2PwLfbIlFoNLBEKVa-27" value="" style="endArrow=none;dashed=1;html=1;dashPattern=1 3;strokeWidth=2;" edge="1" parent="1" source="o_f2PwLfbIlFoNLBEKVa-2" target="o_f2PwLfbIlFoNLBEKVa-23">
          <mxGeometry width="50" height="50" relative="1" as="geometry">
            <mxPoint x="270" y="255" as="sourcePoint" />
            <mxPoint x="430" y="225" as="targetPoint" />
          </mxGeometry>
        </mxCell>
        <mxCell id="o_f2PwLfbIlFoNLBEKVa-28" value="" style="endArrow=none;dashed=1;html=1;dashPattern=1 3;strokeWidth=2;entryX=0;entryY=0.625;entryDx=0;entryDy=0;entryPerimeter=0;" edge="1" parent="1" target="o_f2PwLfbIlFoNLBEKVa-23">
          <mxGeometry width="50" height="50" relative="1" as="geometry">
            <mxPoint x="280" y="320" as="sourcePoint" />
            <mxPoint x="440" y="290" as="targetPoint" />
          </mxGeometry>
        </mxCell>
        <mxCell id="o_f2PwLfbIlFoNLBEKVa-29" value="&amp;lt;&amp;lt;extend&amp;gt;&amp;gt;" style="text;html=1;align=center;verticalAlign=middle;resizable=0;points=[];autosize=1;rotation=-10;" vertex="1" parent="1">
          <mxGeometry x="333.5" y="140" width="80" height="20" as="geometry" />
        </mxCell>
        <mxCell id="o_f2PwLfbIlFoNLBEKVa-31" value="&amp;lt;&amp;lt;include&amp;gt;&amp;gt;" style="text;html=1;align=center;verticalAlign=middle;resizable=0;points=[];autosize=1;rotation=15;" vertex="1" parent="1">
          <mxGeometry x="334" y="210" width="80" height="20" as="geometry" />
        </mxCell>
        <mxCell id="o_f2PwLfbIlFoNLBEKVa-33" value="&lt;span style=&quot;color: rgb(0, 0, 0); font-family: helvetica; font-size: 12px; font-style: normal; font-weight: 400; letter-spacing: normal; text-align: center; text-indent: 0px; text-transform: none; word-spacing: 0px; background-color: rgb(248, 249, 250); display: inline; float: none;&quot;&gt;&amp;lt;&amp;lt;include&amp;gt;&amp;gt;&lt;/span&gt;" style="text;whiteSpace=wrap;html=1;rotation=-15;" vertex="1" parent="1">
          <mxGeometry x="310" y="280" width="90" height="30" as="geometry" />
        </mxCell>
        <mxCell id="o_f2PwLfbIlFoNLBEKVa-34" value="" style="endArrow=none;html=1;" edge="1" parent="1">
          <mxGeometry width="50" height="50" relative="1" as="geometry">
            <mxPoint x="40" y="450" as="sourcePoint" />
            <mxPoint x="260" y="450" as="targetPoint" />
          </mxGeometry>
        </mxCell>
        <mxCell id="o_f2PwLfbIlFoNLBEKVa-35" value="Consultas" style="text;html=1;strokeColor=none;fillColor=none;align=center;verticalAlign=middle;whiteSpace=wrap;rounded=0;" vertex="1" parent="1">
          <mxGeometry x="120" y="430" width="40" height="20" as="geometry" />
        </mxCell>
        <mxCell id="o_f2PwLfbIlFoNLBEKVa-44" value="" style="whiteSpace=wrap;html=1;aspect=fixed;" vertex="1" parent="1">
          <mxGeometry x="490" y="535" width="250" height="250" as="geometry" />
        </mxCell>
        <mxCell id="o_f2PwLfbIlFoNLBEKVa-45" value="Review" style="ellipse;whiteSpace=wrap;html=1;" vertex="1" parent="1">
          <mxGeometry x="610" y="550" width="120" height="80" as="geometry" />
        </mxCell>
        <mxCell id="o_f2PwLfbIlFoNLBEKVa-46" value="Consultas" style="ellipse;whiteSpace=wrap;html=1;" vertex="1" parent="1">
          <mxGeometry x="600" y="665" width="120" height="80" as="geometry" />
        </mxCell>
        <mxCell id="o_f2PwLfbIlFoNLBEKVa-47" value="" style="endArrow=none;html=1;" edge="1" parent="1">
          <mxGeometry width="50" height="50" relative="1" as="geometry">
            <mxPoint x="501" y="675" as="sourcePoint" />
            <mxPoint x="600" y="695" as="targetPoint" />
          </mxGeometry>
        </mxCell>
        <mxCell id="o_f2PwLfbIlFoNLBEKVa-48" value="" style="endArrow=none;html=1;" edge="1" parent="1">
          <mxGeometry width="50" height="50" relative="1" as="geometry">
            <mxPoint x="501" y="645" as="sourcePoint" />
            <mxPoint x="610" y="595" as="targetPoint" />
          </mxGeometry>
        </mxCell>
        <mxCell id="o_f2PwLfbIlFoNLBEKVa-49" value="User" style="shape=umlActor;verticalLabelPosition=bottom;verticalAlign=top;html=1;outlineConnect=0;" vertex="1" parent="1">
          <mxGeometry x="450" y="625" width="30" height="60" as="geometry" />
        </mxCell>
      </root>
    </mxGraphModel>
  </diagram>
</mxfile>
